<svg width="122" height="109" viewBox="0 0 122 109" xmlns="http://www.w3.org/2000/svg" xmlns:xlink="http://www.w3.org/1999/xlink"><title>Logo</title><defs><path id="a" d="M.51 108.216h98.76V.67H.51z"/><path id="c" d="M0 108.216h121.819V.67H0z"/></defs><g fill="none" fill-rule="evenodd"><path d="M107.885 61.733c-1.17 12.008-10.448 21.953-18.027 28.184-5.774 4.735-22.406 14.064-23.627 14.704-1.752.891-3.324 1.623-5.127 1.729l-.082.004h-.203c-2.004-.033-3.759-.85-5.39-1.685-.253-.13-26.068-14.9-34.573-26.254-2.189-2.929-5.979-8.913-6.803-16.117-.54-4.825-.54-10.014-.54-14.183V11.643l3.11-.618c.438-.086 42.798-8.265 43.774-8.265.14 0 .35.004.568.03 7.604 1.038 15.355 2.67 22.85 4.25 6.79 1.43 13.809 2.908 20.635 3.93l3.446.515v20.427c0 3.17.103 6.449.202 9.62.103 3.266.208 6.645.208 10.009 0 3.766-.137 7.1-.421 10.192" fill="#FFF"/><path d="M56.725 102.159c-1.362-.704-25.753-14.958-33.599-25.432-2.968-3.974-5.633-9.29-6.257-14.748-.504-4.492-.524-9.214-.524-13.864V13.958l.832-.165c14.269-2.767 42.882-8.21 43.22-8.21.06 0 .15 0 .245.01 14.295 1.955 29.03 6.033 43.544 8.193l-.146 1.011.146-1.011.877.13v17.996c0 6.464.41 13.024.41 19.628 0 3.3-.105 6.615-.41 9.936-1.088 11.171-10.114 20.596-17.009 26.264-5.479 4.492-21.794 13.677-23.142 14.382-1.369.696-2.678 1.334-3.972 1.41h-.12c-1.362-.023-2.718-.668-4.095-1.373" fill="#00B0D8"/><g transform="translate(11.02 .114)"><mask id="b" fill="#fff"><use xlink:href="#a"/></mask><path d="M96.865 61.619c-1.169 12.008-10.448 21.953-18.027 28.184-5.774 4.735-22.405 14.064-23.627 14.704-1.751.89-3.323 1.623-5.126 1.728l-.082.005H49.8c-2.005-.033-3.76-.85-5.39-1.685-.254-.131-26.069-14.9-34.573-26.254-2.19-2.93-5.98-8.913-6.803-16.118-.54-4.825-.54-10.013-.54-14.183V11.53l3.109-.619c.44-.085 42.798-8.265 43.775-8.265.14 0 .35.005.568.03 7.604 1.038 15.354 2.67 22.85 4.25 6.79 1.43 13.809 2.909 20.634 3.931l3.447.515v20.426c0 3.17.103 6.45.201 9.62.104 3.267.21 6.645.21 10.01 0 3.766-.139 7.1-.423 10.192m2.195-20.306c-.098-3.142-.2-6.39-.2-9.516V9.67l-5.135-.767C86.963 7.89 79.98 6.419 73.207 4.992 65.678 3.406 57.892 1.765 50.17.712a7.286 7.286 0 0 0-.793-.043C48.076.669 5.65 8.888 5.215 8.973L.51 9.909V48c0 4.219 0 9.469.553 14.407.877 7.664 4.876 13.987 7.184 17.076 8.757 11.69 35.003 26.699 35.257 26.83 1.758.9 3.836 1.863 6.296 1.903h.263l.138-.009c2.184-.126 4.043-.99 5.933-1.95 1.29-.677 17.968-10.011 23.966-14.93 7.868-6.468 17.505-16.84 18.74-29.528.29-3.148.43-6.54.43-10.373 0-3.433-.11-6.96-.21-10.113" fill="#00B0D8" mask="url(#b)"/></g><path d="M16.282 62.383h88.991v-5.794H16.282z"/><g transform="translate(0 .114)"><path d="M106.154 47.872h-90.25c-.078-.289.435.01.283-.353.068-.35-.465-.101-.284-.564-.126-.434.465-.148.284-.635.164-.399-.313-.157-.284-.423-.158-.511.22-.486.284-.775.156-.438-.439-.127-.284-.565-.18-.463.352-.214.284-.564.056-.408-.476-.232-.284-.776-.138-.373.423-.05.284-.423.18-.486-.41-.2-.284-.635-.165-.494.45-.21.284-.704.17-.43-.392-.128-.284-.494-.179-.486.309-.305.284-.635.182-.462-.351-.214-.284-.564 1.374-.726 3.886-.315 5.877-.424.164-.846.024-1.997.07-2.961a.815.815 0 0 0 .354-.635c.505.104.528-.274.92-.282.267-.417.91-.456 1.062-.987.56-.1.904-.415 1.204-.776.3.043.566-.059.778 0 .203.056.096.17.212.282.05.047.235-.047.283 0 .044.043-.048.246 0 .283.154.116.53.113.638.21.166.153-.062.476.282.353.424-1.459-.14-3.9.284-5.36v5.571c.525.16.708.658 1.345.706.097.091.07.306.07.494h.496v1.057c1.423.041 2.824.102 4.318.072v6.134c.35.18.983.107.92-.352h1.133c.243.064.099.512.566.352.165-2.421.024-5.148.07-7.686.54-.357.181-1.608.284-2.398h3.468c.162-.098.026-.491.072-.705h4.246v.916c.168.163.636.026.92.071v1.975c.726.218 1.675.212 2.548.282.13-2.078.071-4.369.071-6.7 0-2.234-.154-5.568.213-7.263.658-.273 1.526.378 1.982 0 .284-.236.07-1.72.07-2.399v-2.538c.165 1.505.024 3.314.071 4.937.594-.228 1.312.32 1.7 0 .269-.225.07-1.511.07-2.187v-2.327c.404.433-.322 4.223.142 4.514.366.229.44-.234.495-.424h1.627v.705h.85c-.091.35.088.43.283.494V35.39c.203.196.854-.053 1.063.14v-7.898h1.202V21.78c.346-.08.695-.154 1.062-.212v-2.115c-.247-.437-1.019-.35-1.062-.988 1.428-.317 3.324-.167 4.955-.282.27-.056.09.333.141.494h2.196v.493c-.029.232-.348.172-.568.211.048 1.505-.094 3.198.072 4.585.412-.176-.185-1.36.425-1.34v-1.55c.896-.283 2.614.254 3.185-.354.546.585 1.99.275 3.042.353.003.373-.095.848.284.846v2.256c-.113.278.307.025.284.212-.085.906.071 1.575.213 2.257-.033.196.386-.056.353.14.12.609-.283 1.74.283 1.905v5.641c.261.164.826.025 1.204.071v.634c-.012.201.435-.058.424.142v3.314h2.832v-8.956c.566-.07.958-.314 1.557-.353v-.846c1.002.128 1.052-.69 1.627-.987.94-.183 1.125.384 1.559.705.795-.242 1.702-.373 2.548-.564v.564h2.264c.16-.053.028-.395.072-.564 1.163.322 2.26.711 3.397 1.058v3.173h1.84c.047 1.81-.094 3.808.072 5.5.451-.171.158-.757.14-1.128-.044-.985.034-2.188 0-3.173h.496c-.296-.811.736-.3.496-1.058h6.441c-.24.71.665.277.425.988.076.16.445.027.638.07v6.911h2.9v5.219c.442.056 1.637-.099 2.195.07v.353c.148.38-.385.086-.424.283v.422c-.078.336.589-.07.424.353.21.515-.41.202-.424.493-.229.651.653.196.424.847z" fill="#FFF"/><path d="M16.667 59.699c.057.726.122 1.45.202 2.165.624 5.458 3.29 10.775 6.257 14.748 7.846 10.474 32.237 24.728 33.6 25.432 1.377.705 2.731 1.35 4.094 1.373h.12c1.294-.076 2.604-.713 3.973-1.41 1.347-.705 17.662-9.89 23.14-14.381 6.895-5.668 15.922-15.093 17.01-26.265.05-.554.088-1.108.13-1.662H16.666z" fill="#1B75BB"/><mask id="d" fill="#fff"><use xlink:href="#c"/></mask><path fill="#1B75BB" mask="url(#d)" d="M0 68.65h121.819V47.1H0z"/><path fill="#FFF" mask="url(#d)" d="M3.683 63.778l1.901-11.805h2.274l2.949 7.062 2.948-7.062h2.274l1.9 11.805h-2.735l-.941-7.043-2.967 7.043h-.96l-2.965-7.043-.94 7.043zM20.024 63.778h2.735V51.973h-2.735zM28.14 61.477h.73c.567 0 1.811-.053 2.699-.797.64-.53 1.154-1.539 1.154-2.848 0-1.275-.514-2.089-.977-2.549-.888-.885-2.043-1.008-2.877-1.008h-.729v7.202zm1.012-9.503c1.564 0 3.217.23 4.673 1.629 1.047 1.008 1.705 2.388 1.705 4.229 0 1.857-.64 3.203-1.616 4.176-1.634 1.646-3.677 1.77-4.673 1.77h-3.837V51.974h3.748zM39.188 51.974l2.523 7.822 2.522-7.822h1.882l2.523 7.822 2.522-7.822h2.842L49.97 63.778h-2.308l-2.488-7.168-2.487 7.168h-2.309l-4.031-11.804zM62.065 54.275h-3.961v2.283h3.765v2.3h-3.765v2.62h3.96v2.3h-6.696V51.972h6.697zM70.394 54.859c-.887-.797-1.652-.85-1.989-.85-.373 0-.835.053-1.154.407a1.054 1.054 0 0 0-.303.743c0 .284.09.496.267.655.284.266.693.372 1.492.673l.888.336c.516.195 1.155.46 1.617.902.692.655.87 1.504.87 2.195 0 1.22-.426 2.283-1.048 2.92-1.048 1.097-2.575 1.203-3.357 1.203-.852 0-1.598-.123-2.345-.496-.603-.3-1.297-.849-1.74-1.291l1.42-1.946c.303.3.782.707 1.102.901.461.283.942.425 1.492.425.355 0 .853-.07 1.243-.407.23-.195.427-.513.427-.955 0-.39-.16-.637-.409-.85-.32-.266-1.048-.53-1.386-.655l-.976-.336c-.55-.194-1.19-.442-1.652-.938-.622-.655-.71-1.487-.71-2.052 0-1.045.319-1.93 1.029-2.655.835-.85 1.83-1.08 2.932-1.08a5.74 5.74 0 0 1 3.517 1.168l-1.227 1.983zM78.21 54.275v9.502h-2.737v-9.502H72.9v-2.302h7.886v2.302zM89.096 57.407h.977c.373 0 1.03-.018 1.474-.443.25-.247.444-.654.444-1.168 0-.495-.177-.902-.444-1.15-.407-.39-.994-.442-1.527-.442h-.924v3.203zm1.44-5.434c1.03 0 2.166.142 3.107.974 1.013.885 1.155 2.053 1.155 2.867 0 1.486-.569 2.318-1.012 2.779-.941.955-2.185 1.044-3.02 1.044h-1.67v4.14H86.36V51.974h4.175zM99.255 56.469h4.725v-4.495h2.736v11.803h-2.736V58.77h-4.725v5.007H96.52V51.974h2.735zM112.044 57.407h.976c.374 0 1.032-.018 1.475-.443.248-.247.444-.654.444-1.168 0-.495-.177-.902-.444-1.15-.408-.39-.994-.442-1.528-.442h-.923v3.203zm1.439-5.434c1.03 0 2.166.142 3.107.974 1.013.885 1.155 2.053 1.155 2.867 0 1.486-.569 2.318-1.012 2.779-.941.955-2.185 1.044-3.02 1.044h-1.67v4.14h-2.735V51.974h4.175zM9.347 75.413h103.125v-7.302H9.347z"/><path fill="#000" mask="url(#d)" d="M9.347 76.9h103.125v-4.068H9.347z"/><path fill="#1B75BB" mask="url(#d)" d="M9.248 75.968h103.323v-7.302H9.248z"/><path d="M17.093 73.231c-.276.656-1.021 1.22-1.96 1.22-1.265 0-2.23-.973-2.23-2.203 0-1.214.941-2.204 2.222-2.204 1.056 0 1.721.703 1.968 1.243h-.512c-.145-.253-.63-.822-1.456-.822-1 0-1.748.788-1.748 1.777 0 1.006.757 1.788 1.748 1.788.895 0 1.351-.638 1.456-.799h.512zM24.587 72.248c0 1 .755 1.782 1.754 1.782 1.012 0 1.75-.81 1.75-1.782s-.738-1.783-1.755-1.783c-1.005 0-1.75.793-1.75 1.778v.005zm-.479.012c0-1.312 1.021-2.216 2.228-2.216 1.252 0 2.229.955 2.229 2.204 0 1.248-.97 2.203-2.229 2.203-1.264 0-2.228-.973-2.228-2.187v-.004zM38.8 73.674l-.007-3.555h.462v4.258h-.462l-2.534-3.585.012 3.585h-.463v-4.258h.486zM46.696 70.119h2.17v.42h-1.697v1.495h1.686v.426H47.17v1.917h-.473zM56.093 70.119h2.366v.42h-1.893v1.479h1.883v.42h-1.883v1.517h1.893v.422h-2.366zM65.762 70.119h1.114c.67 0 .98.081 1.2.22.346.206.582.66.582 1.143.007.289-.074.592-.254.833-.254.346-.56.428-.952.468l1.063 1.594h-.52l-1.206-1.859h.138c.3 0 .715-.005.946-.22.226-.217.325-.476.325-.781 0-.315-.157-.65-.421-.823-.215-.138-.481-.155-.867-.155h-.671v3.838h-.477v-4.258zM75.776 70.119h2.366v.42H76.25v1.479h1.88v.42h-1.88v1.517h1.892v.422h-2.366zM88.475 73.674l-.006-3.555h.461v4.258h-.461l-2.534-3.585.01 3.585h-.46v-4.258h.484zM100.366 73.231c-.277.656-1.021 1.22-1.963 1.22-1.264 0-2.229-.973-2.229-2.203 0-1.214.942-2.204 2.224-2.204 1.055 0 1.72.703 1.968 1.243h-.514c-.144-.253-.63-.822-1.454-.822-.999 0-1.75.788-1.75 1.777 0 1.006.757 1.788 1.75 1.788.896 0 1.35-.638 1.454-.799h.514zM107.582 70.119h2.366v.42h-1.89v1.479h1.879v.42h-1.88v1.517h1.891v.422h-2.366z" fill="#FFF" mask="url(#d)"/></g></g></svg>