<?xml version="1.0" encoding="utf-8"?>
<!-- Generator: Adobe Illustrator 21.0.2, SVG Export Plug-In . SVG Version: 6.00 Build 0)  -->
<svg version="1.1" id="Layer_1" xmlns="http://www.w3.org/2000/svg" xmlns:xlink="http://www.w3.org/1999/xlink" x="0px" y="0px"
	 viewBox="0 0 1920 1080" style="enable-background:new 0 0 1920 1080;" xml:space="preserve">
<style type="text/css">
	.st0{fill:#606078;stroke:#535353;stroke-width:5;stroke-miterlimit:10;}
	.st1{fill:#49300B;}
	.st2{fill:#512C04;}
	.st3{fill:url(#SVGID_1_);}
	.st4{fill:#535353;}
	.st5{fill:#ECE9E9;stroke:#646464;stroke-width:5;stroke-miterlimit:10;}
	.st6{fill:#3D3D3D;stroke:#404040;stroke-width:5;stroke-miterlimit:10;}
	.st7{fill:#3D3D3D;stroke:#3E3E3E;stroke-width:5;stroke-miterlimit:10;}
	.st8{fill:none;}
	.st9{fill:#F9F7F7;stroke:#B5AFAE;stroke-miterlimit:10;}
	.st10{fill:#0E7A27;}
	.st11{font-family:'Arial-BoldMT';}
	.st12{font-size:60px;}
	.st13{fill:#990D0D;stroke:#AF2614;stroke-miterlimit:10;}
</style>
<path class="st0" d="M711.5,721.5c-13.6-45.7-46.8-67.4-67-61c-19.4,6.2-32.5,40.4-22,59C633.5,738.9,673.2,746.8,711.5,721.5z"/>
<g>
	<polygon class="st1" points="462.9,712.5 558.9,690.6 737.7,748.8 633,801.2 	"/>
	<path class="st2" d="M558.8,693.2l172.4,56.2l-98.1,49l-162.9-84.9L558.8,693.2 M559,688l-103.2,23.6L633,804l111.3-55.6L559,688
		L559,688z"/>
</g>
<g>
	<linearGradient id="SVGID_1_" gradientUnits="userSpaceOnUse" x1="530.5" y1="705.0698" x2="597.5" y2="705.0698">
		<stop  offset="0" style="stop-color:#FFFFFF"/>
		<stop  offset="1.195186e-02" style="stop-color:#F6F6F6"/>
		<stop  offset="8.855808e-02" style="stop-color:#C3C3C3"/>
		<stop  offset="0.1706" style="stop-color:#959595"/>
		<stop  offset="0.2562" style="stop-color:#6D6D6D"/>
		<stop  offset="0.3462" style="stop-color:#4B4B4B"/>
		<stop  offset="0.4417" style="stop-color:#303030"/>
		<stop  offset="0.5449" style="stop-color:#1A1A1A"/>
		<stop  offset="0.6594" style="stop-color:#0B0B0B"/>
		<stop  offset="0.7943" style="stop-color:#030303"/>
		<stop  offset="1" style="stop-color:#000000"/>
	</linearGradient>
	<polygon class="st3" points="530.5,725.9 530.5,649.3 597.5,667.3 597.5,760.9 	"/>
	<path class="st4" d="M533,652.5l62,16.7v87.5l-62-32.3V652.5 M528,646v81.5l72,37.5v-99.6L528,646L528,646z"/>
</g>
<path class="st5" d="M686.5,635.7c0,19.8-16.3,32.8-35.2,29.3c-17.5-3.2-30.8-19.8-30.8-37.1s13.3-30.7,30.8-29.8
	C670.2,599.1,686.5,616,686.5,635.7z"/>
<line class="st6" x1="724.5" y1="665.5" x2="811.5" y2="631.5"/>
<line class="st7" x1="747.5" y1="602.5" x2="811.5" y2="631.5"/>
<line class="st6" x1="811.5" y1="631.5" x2="970.5" y2="705.5"/>
<line class="st7" x1="807.5" y1="577.5" x2="745" y2="603"/>
<polygon class="st7" points="1054.5,670.5 1042.5,684.5 1022.5,675.5 "/>
<polygon class="st7" points="831.5,567.5 819.5,581.5 799.5,574.5 "/>
<polygon class="st8" points="982.7,535 892,535 842,595 932.7,595 "/>
<g>
	<polyline class="st8" points="1043,702.3 1190,587 1086,587 	"/>
	<polygon class="st9" points="1163.1,544.9 1215.1,565.7 1152.1,595.9 1100.5,569 	"/>
	<polygon class="st9" points="1163.1,542.9 1215.1,563.7 1152.1,593.9 1100.5,567 	"/>
	<polygon class="st9" points="1163.1,540.9 1215.1,561.7 1152.1,591.9 1100.5,565 	"/>
	<polygon class="st9" points="1163.1,538.9 1215.1,559.7 1152.1,589.9 1100.5,563 	"/>
	<polygon class="st9" points="1163.1,536.9 1215.1,557.7 1152.1,587.9 1100.5,561 	"/>
	<polygon class="st9" points="1163.1,534.9 1215.1,555.7 1152.1,585.9 1100.5,559 	"/>
	<polygon class="st9" points="1163.1,532.9 1215.1,553.7 1152.1,583.9 1100.5,557 	"/>
	<polygon class="st9" points="1163.1,530.9 1215.1,551.7 1152.1,581.9 1100.5,555 	"/>
</g>
<g>
	<line class="st6" x1="906.5" y1="382.5" x2="848.5" y2="414.1"/>
	<rect x="825.4" y="438.9" class="st8" width="104" height="66.7"/>
	<polygon class="st9" points="902.5,463.5 954.5,486.3 891.5,514.5 839.9,489.6 	"/>
	<polygon class="st9" points="902.5,461.5 954.5,484.3 891.5,512.5 839.9,487.6 	"/>
	<polygon class="st9" points="902.5,459.5 954.5,482.3 891.5,510.5 839.9,485.6 	"/>
	<polygon class="st9" points="902.5,457.5 954.5,480.3 891.5,509.5 839.9,484.6 	"/>
	<polygon class="st9" points="902.5,455.5 954.5,478.3 891.5,506.5 839.9,481.6 	"/>
	<polygon class="st9" points="902.5,453.5 954.5,476.3 891.5,504.5 839.9,479.6 	"/>
	<polygon class="st9" points="902.5,451.5 954.5,474.3 891.5,502.5 839.9,477.6 	"/>
	<polygon class="st9" points="902.5,449.5 954.5,472.3 891.5,500.5 839.9,475.6 	"/>
	<rect x="825.4" y="422.9" class="st8" width="104" height="66.7"/>
	<polygon class="st9" points="902.5,447.5 953.5,470.3 890.5,498.5 839.9,473.6 	"/>
	<polygon class="st9" points="902.5,445.5 954.5,468.3 891.5,496.5 839.9,471.6 	"/>
	<polygon class="st9" points="902.5,443.5 954.5,466.3 891.5,494.5 839.9,469.6 	"/>
	<polygon class="st9" points="902.5,441.5 954.5,464.3 891.5,492.5 839.9,467.6 	"/>
	<polygon class="st9" points="902.5,439.5 955.5,461.3 892.5,489.5 839.9,465.6 	"/>
	<polygon class="st9" points="902.5,437.5 954.5,460.3 891.5,488.5 839.9,463.6 	"/>
	<polygon class="st9" points="902.5,435.5 954.5,458.3 891.5,486.5 839.9,461.6 	"/>
	<polyline class="st9" points="902.5,433.5 954.5,456.3 891.5,484.5 839.9,459.6 902.5,433.5 	"/>
	<rect x="825.4" y="406.9" class="st8" width="104" height="66.7"/>
	<polygon class="st9" points="902.5,431.5 954.5,454.3 891.5,482.5 839.9,457.6 	"/>
	<polygon class="st9" points="902.5,429.5 954.5,452.3 891.5,480.5 839.9,455.6 	"/>
	<polygon class="st9" points="901.5,427.5 953.5,450.3 890.5,478.5 838.9,453.6 	"/>
	<polygon class="st9" points="902.5,425.5 954.5,448.3 891.5,476.5 839.9,451.6 	"/>
	<polygon class="st9" points="902.5,423.5 954.5,446.3 891.5,474.5 839.9,449.6 	"/>
	<polygon class="st9" points="902.5,421.5 954.5,444.3 891.5,472.5 839.9,447.6 	"/>
	<polygon class="st9" points="902.5,419.5 954.5,442.3 891.5,470.5 839.9,445.6 	"/>
	<polyline class="st9" points="902.5,417.5 954.5,440.3 891.5,468.5 839.9,443.6 902.5,417.5 	"/>
	<rect x="825.4" y="390.9" class="st8" width="104" height="66.7"/>
	<polyline class="st9" points="891.5,466.5 839.9,441.6 902.5,415.5 954.5,438.3 891.5,466.5 	"/>
	<polyline class="st9" points="891.5,464.5 839.9,439.6 902.5,413.5 954.5,436.3 891.5,464.5 	"/>
	<polyline class="st9" points="891.5,462.5 839.9,437.6 902.5,411.5 954.5,434.3 891.5,462.5 	"/>
	<polyline class="st9" points="891.5,461.5 839.9,436.6 902.5,409.5 954.5,432.3 891.5,461.5 	"/>
	<polygon class="st9" points="902.5,407.5 954.5,430.3 891.5,458.5 839.9,433.6 	"/>
	<polygon class="st9" points="902.5,405.5 954.5,428.3 891.5,456.5 839.9,431.6 	"/>
	<polygon class="st9" points="902.5,403.5 954.5,426.3 891.5,454.5 839.9,429.6 	"/>
	<polygon class="st9" points="902.5,401.5 954.5,424.3 891.5,452.5 839.9,427.6 	"/>
	<rect x="825.4" y="374.9" class="st8" width="104" height="66.7"/>
	<polygon class="st9" points="902.5,399.5 953.5,422.3 890.5,450.5 839.9,425.6 	"/>
	<polygon class="st9" points="902.5,397.5 954.5,420.3 891.5,448.5 839.9,423.6 	"/>
	<polygon class="st9" points="902.5,395.5 954.5,418.3 891.5,446.5 839.9,421.6 	"/>
	<polygon class="st9" points="902.5,393.5 954.5,416.3 891.5,444.5 839.9,419.6 	"/>
	<polygon class="st9" points="902.5,391.5 955.5,413.3 892.5,441.5 839.9,417.6 	"/>
	<polygon class="st9" points="902.5,389.5 954.5,412.3 891.5,440.5 839.9,415.6 	"/>
	<polygon class="st9" points="902.5,387.5 954.5,410.3 891.5,438.5 839.9,413.6 	"/>
	<polyline class="st9" points="902.5,385.5 954.5,408.3 891.5,436.5 839.9,411.6 902.5,385.5 	"/>
	<rect x="825.4" y="358.9" class="st8" width="104" height="66.7"/>
	<polygon class="st9" points="902.5,383.5 954.5,406.3 891.5,434.5 839.9,409.6 	"/>
	<polygon class="st9" points="902.5,381.5 954.5,404.3 891.5,432.5 839.9,407.6 	"/>
	<polygon class="st9" points="901.5,379.5 953.5,402.3 890.5,430.5 838.9,405.6 	"/>
	<polygon class="st9" points="902.5,377.5 954.5,400.3 891.5,428.5 839.9,403.6 	"/>
	<polygon class="st9" points="902.5,375.5 954.5,398.3 891.5,426.5 839.9,401.6 	"/>
	<polyline class="st9" points="902.5,373.5 954.5,396.3 891.5,424.5 839.9,399.6 902.5,373.5 	"/>
	<polyline class="st9" points="902.5,371.5 954.5,394.3 891.5,422.5 839.9,397.6 902.5,371.5 	"/>
	<polyline class="st9" points="902.5,369.5 954.5,392.3 891.5,420.5 839.9,395.6 902.5,369.5 	"/>
</g>
<line class="st7" x1="1031.5" y1="680.5" x2="969" y2="706"/>
<text transform="matrix(1 0 0 1 724.0254 548.7041)" class="st10 st11 st12">APPROVED</text>
<text transform="matrix(1 0 0 1 996.625 632.043)" class="st13 st11 st12">REJECTED</text>
<polygon class="st9" points="661.8,736.7 701,752 653.5,774 614.6,754.3 "/>
</svg>
