<svg id="Layer_1" data-name="Layer 1" xmlns="http://www.w3.org/2000/svg" xmlns:xlink="http://www.w3.org/1999/xlink" viewBox="0 0 107 22.24"><defs><style>.cls-1{fill:none}.cls-2{fill:#e1312e}.cls-3{fill:#dd5353}.cls-4{fill:url(#linear-gradient)}.cls-5{fill:url(#linear-gradient-2)}.cls-6{fill:url(#linear-gradient-3)}.cls-7{fill:url(#linear-gradient-4)}.cls-8{fill:url(#linear-gradient-5)}.cls-9{fill:url(#linear-gradient-6)}.cls-10{fill:#6a6d6e}.cls-11{fill:#8c9091}.cls-12{clip-path:url(#clip-path)}.cls-13{fill:#8d8e8f}</style><linearGradient id="linear-gradient" x1="1.37" y1="1.33" x2="1.37" y2="17.65" gradientUnits="userSpaceOnUse"><stop offset=".15" stop-color="#e2312e"/><stop offset="1" stop-color="#bd3031"/></linearGradient><linearGradient id="linear-gradient-2" x1="14.24" y1="2.21" x2="14.24" y2="18.54" xlink:href="#linear-gradient"/><linearGradient id="linear-gradient-3" x1="54.7" y1="18.93" x2="54.7" y2="2.21" gradientUnits="userSpaceOnUse"><stop offset="0" stop-color="#313436"/><stop offset="1" stop-color="#474a4d"/></linearGradient><linearGradient id="linear-gradient-4" x1="71.3" y1="18.54" x2="71.3" y2="2.21" xlink:href="#linear-gradient-3"/><linearGradient id="linear-gradient-5" x1="85.87" y1="18.93" x2="85.87" y2="1.81" xlink:href="#linear-gradient-3"/><linearGradient id="linear-gradient-6" x1="100.57" y1="18.54" x2="100.57" y2="2.21" xlink:href="#linear-gradient-3"/><clipPath id="clip-path" transform="translate(0 -.88)"><circle class="cls-1" cx="34.48" cy="10.12" r="5.63" transform="rotate(-45 34.472 10.121)"/></clipPath></defs><title>inquest-logo-web</title><path class="cls-2" d="M46.74 21.13l-.56-.56-3.08-3.09-1.66 1.66 3.64 3.64a.89.89 0 0 0 1.38 0l.28-.28a.89.89 0 0 0 0-1.37z" transform="translate(0 -.88)"/><path class="cls-3" d="M46.6 22.65l.14-.14a.89.89 0 0 0 0-1.38l-.56-.56-3.08-3.09-.83.83z" transform="translate(0 -.88)"/><rect class="cls-4" y="1.33" width="2.74" height="16.32" rx=".12" ry=".12"/><path class="cls-5" d="M21.24 2.21h-2.53a.12.12 0 0 0-.12.12v12.09L10.44 2.27a.12.12 0 0 0-.1-.05h-3.1a.12.12 0 0 0-.12.12v16.07a.12.12 0 0 0 .12.12h2.53a.12.12 0 0 0 .12-.12V6.32l8.24 12.17a.12.12 0 0 0 .1.05h3a.12.12 0 0 0 .12-.12V2.33a.12.12 0 0 0-.11-.12z" transform="translate(0 -.88)"/><path class="cls-6" d="M61 2.21h-2.56a.12.12 0 0 0-.12.12v9.81a6 6 0 0 1-.19 1.44 4.13 4.13 0 0 1-.62 1.35 3.33 3.33 0 0 1-1.11 1 4 4 0 0 1-3.4 0 3.31 3.31 0 0 1-1.11-1 4.12 4.12 0 0 1-.62-1.34 5.91 5.91 0 0 1-.19-1.44V2.33a.12.12 0 0 0-.08-.12h-2.57a.12.12 0 0 0-.12.12v10.15a6.77 6.77 0 0 0 .49 2.62 6.29 6.29 0 0 0 1.35 2 6 6 0 0 0 2 1.33 7 7 0 0 0 5 0 6 6 0 0 0 2-1.33 6.25 6.25 0 0 0 1.35-2 6.75 6.75 0 0 0 .49-2.62V2.33a.12.12 0 0 0 .01-.12z" transform="translate(0 -.88)"/><path class="cls-7" d="M76.76 15.9h-8.27v-4.38h7.32a.12.12 0 0 0 .12-.12V9a.12.12 0 0 0-.12-.12h-7.32v-4h7.87a.12.12 0 0 0 .12-.12V2.33a.12.12 0 0 0-.12-.12H65.84a.12.12 0 0 0-.12.12v16.08a.12.12 0 0 0 .12.12h10.92a.12.12 0 0 0 .12-.12V16a.12.12 0 0 0-.12-.1z" transform="translate(0 -.88)"/><path class="cls-8" d="M89.28 10a8.28 8.28 0 0 0-1.93-.77 16.87 16.87 0 0 1-1.83-.58 4.19 4.19 0 0 1-1.33-.8 1.66 1.66 0 0 1-.47-1.29 2.08 2.08 0 0 1 .13-.67 1.81 1.81 0 0 1 .42-.67 2.31 2.31 0 0 1 .83-.52 3.71 3.71 0 0 1 1.35-.21 3.29 3.29 0 0 1 1.55.3 2.57 2.57 0 0 1 1 .89l.13.2a.12.12 0 0 0 .09.05.12.12 0 0 0 .1 0l2-1.86a.12.12 0 0 0 0-.17l-.12-.15A4.55 4.55 0 0 0 89 2.18a8.84 8.84 0 0 0-2.55-.37 6.46 6.46 0 0 0-2.55.46 5.51 5.51 0 0 0-1.75 1.14 4.48 4.48 0 0 0-1.33 3.11 4.78 4.78 0 0 0 .63 2.6A4.87 4.87 0 0 0 83 10.65a7.92 7.92 0 0 0 1.94.87c.66.2 1.28.4 1.84.61a4.68 4.68 0 0 1 1.34.74 1.36 1.36 0 0 1 .43 1.13 1.88 1.88 0 0 1-.24 1 2.41 2.41 0 0 1-.66.72 3 3 0 0 1-.91.45 3.78 3.78 0 0 1-2.74-.26 3.2 3.2 0 0 1-1.34-1.16l-.13-.19a.13.13 0 0 0-.08-.05.13.13 0 0 0-.1 0l-2.06 1.77a.12.12 0 0 0 0 .16l.11.15a5 5 0 0 0 2.29 1.75 8.07 8.07 0 0 0 3 .55 7 7 0 0 0 2.23-.35 5.51 5.51 0 0 0 1.83-1 4.85 4.85 0 0 0 1.25-1.6 5 5 0 0 0 .46-2.18 4.11 4.11 0 0 0-.63-2.41A4.67 4.67 0 0 0 89.28 10z" transform="translate(0 -.88)"/><path class="cls-9" d="M106.88 2.21H94.25a.12.12 0 0 0-.12.12v2.4a.12.12 0 0 0 .12.12h4.93v13.56a.12.12 0 0 0 .12.12h2.53a.12.12 0 0 0 .12-.12V4.85h4.93a.12.12 0 0 0 .12-.12v-2.4a.12.12 0 0 0-.12-.12z" transform="translate(0 -.88)"/><path class="cls-10" d="M40.93 18.65L42.6 17l-.47-.47a.89.89 0 0 0-1.39 0l-.28.28a.89.89 0 0 0 0 1.38z" transform="translate(0 -.88)"/><path class="cls-11" d="M34.48.88a9.24 9.24 0 1 0 9.24 9.24A9.24 9.24 0 0 0 34.48.88zm0 15.86a6.62 6.62 0 1 1 6.62-6.62 6.62 6.62 0 0 1-6.62 6.62z" transform="translate(0 -.88)"/><path class="cls-10" d="M40.36 3a14.79 14.79 0 0 1-.69 3 6.62 6.62 0 0 1-9.29 9.29 14.79 14.79 0 0 1-3 .69 9.24 9.24 0 1 0 13-13z" transform="translate(0 -.88)"/><g class="cls-12"><path class="cls-13" d="M22.72 3.88A.85.85 0 0 0 23.5 3a.8.8 0 1 0-1.57 0 .85.85 0 0 0 .79.88zm0-1.5a.52.52 0 0 1 .46.57c0 .37-.23.59-.45.59a.52.52 0 0 1-.46-.54c0-.4.22-.62.44-.62z" transform="translate(0 -.88)"/><path class="cls-13" d="M23.99 1.21h.33v1.75h-.33z"/><path class="cls-13" d="M25.6 3.88a.85.85 0 0 0 .78-.88.8.8 0 1 0-1.57 0 .85.85 0 0 0 .79.88zm0-1.5A.52.52 0 0 1 26 3c0 .37-.23.59-.45.59a.52.52 0 0 1-.41-.59c0-.4.23-.62.45-.62zm2.02 1.5A.85.85 0 0 0 28.4 3a.8.8 0 1 0-1.57 0 .85.85 0 0 0 .79.88zm0-1.5a.52.52 0 0 1 .46.57c0 .37-.23.59-.45.59a.52.52 0 0 1-.47-.54c0-.4.22-.62.44-.62zm2.01 1.5a.85.85 0 0 0 .78-.88.8.8 0 1 0-1.57 0 .85.85 0 0 0 .79.88zm0-1.5a.52.52 0 0 1 .46.57c0 .37-.23.59-.45.59a.52.52 0 0 1-.47-.54c0-.4.23-.62.44-.62z" transform="translate(0 -.88)"/><path class="cls-13" d="M30.89 1.21h.34v1.75h-.34z"/><path class="cls-13" d="M32.51 3.88a.85.85 0 0 0 .78-.88.8.8 0 1 0-1.57 0 .85.85 0 0 0 .79.88zm0-1.5a.52.52 0 0 1 .46.57c0 .37-.23.59-.45.59A.52.52 0 0 1 32 3c0-.4.27-.62.49-.62z" transform="translate(0 -.88)"/><path class="cls-13" d="M33.77 1.21h.33v1.75h-.33z"/><path class="cls-13" d="M35.38 3.88a.85.85 0 0 0 .78-.88.8.8 0 1 0-1.57 0 .85.85 0 0 0 .79.88zm0-1.5a.52.52 0 0 1 .46.57c0 .37-.23.59-.45.59a.52.52 0 0 1-.47-.54c0-.4.23-.62.45-.62zm2.02 1.5a.85.85 0 0 0 .78-.88.8.8 0 1 0-1.58 0 .85.85 0 0 0 .8.88zm0-1.5a.52.52 0 0 1 .46.57c0 .37-.23.59-.45.59a.52.52 0 0 1-.47-.54c0-.4.22-.62.44-.62z" transform="translate(0 -.88)"/><path class="cls-13" d="M38.66 1.21H39v1.75h-.34z"/><path class="cls-13" d="M40.27 3.88a.85.85 0 0 0 .78-.88.8.8 0 1 0-1.57 0 .85.85 0 0 0 .79.88zm0-1.5a.52.52 0 0 1 .46.57c0 .37-.23.59-.45.59a.52.52 0 0 1-.46-.54c0-.4.18-.62.44-.62zm2.02 1.5a.85.85 0 0 0 .78-.88.8.8 0 1 0-1.57 0 .85.85 0 0 0 .79.88zm0-1.5a.52.52 0 0 1 .46.57c0 .37-.23.59-.45.59a.52.52 0 0 1-.47-.54c0-.4.22-.62.44-.62zm2.01 1.5a.85.85 0 0 0 .78-.88.8.8 0 1 0-1.58 0 .85.85 0 0 0 .8.88zm0-1.5a.52.52 0 0 1 .46.57c0 .37-.23.59-.45.59a.52.52 0 0 1-.47-.54c0-.4.23-.62.45-.62zm2.01 1.5a.85.85 0 0 0 .78-.88.8.8 0 1 0-1.57 0 .85.85 0 0 0 .79.88zm0-1.5a.52.52 0 0 1 .46.57c0 .37-.23.59-.45.59a.52.52 0 0 1-.47-.54c0-.4.23-.62.45-.62zM22.72 6.47a.85.85 0 0 0 .78-.93.8.8 0 1 0-1.57 0 .85.85 0 0 0 .79.93zm0-1.5a.52.52 0 0 1 .46.57c0 .37-.23.59-.45.59a.52.52 0 0 1-.46-.57c0-.37.22-.56.44-.56z" transform="translate(0 -.88)"/><path class="cls-13" d="M23.99 3.8h.33v1.75h-.33z"/><path class="cls-13" d="M25.6 6.47a.85.85 0 0 0 .78-.93.8.8 0 1 0-1.57 0 .85.85 0 0 0 .79.93zm0-1.5a.52.52 0 0 1 .46.57c0 .37-.23.59-.45.59a.52.52 0 0 1-.46-.57c-.01-.37.22-.56.44-.56zm2.02 1.5a.85.85 0 0 0 .78-.93.8.8 0 1 0-1.57 0 .85.85 0 0 0 .79.93zm0-1.5a.52.52 0 0 1 .46.57c0 .37-.23.59-.45.59a.52.52 0 0 1-.46-.57c-.01-.37.21-.56.43-.56z" transform="translate(0 -.88)"/><path class="cls-13" d="M28.88 3.8h.33v1.75h-.33z"/><path class="cls-13" d="M30.48 4.63a.85.85 0 0 0-.78.93.8.8 0 1 0 1.57 0 .85.85 0 0 0-.79-.93zm0 .34a.52.52 0 0 1 .46.57c0 .37-.23.59-.45.59a.52.52 0 0 1-.49-.57c0-.37.26-.56.48-.56zm2.03 1.5a.85.85 0 0 0 .78-.93.8.8 0 1 0-1.57 0 .85.85 0 0 0 .79.93zm0-1.5a.52.52 0 0 1 .46.57c0 .37-.23.59-.45.59a.52.52 0 0 1-.52-.57c0-.37.27-.56.49-.56z" transform="translate(0 -.88)"/><path class="cls-13" d="M33.77 3.8h.33v1.75h-.33z"/><path class="cls-13" d="M36.16 5.54a.8.8 0 1 0-1.57 0 .8.8 0 1 0 1.57 0zM35.37 5a.52.52 0 0 1 .46.57c0 .37-.23.59-.45.59a.52.52 0 0 1-.46-.57c0-.4.23-.59.45-.59zm2.03 1.47a.85.85 0 0 0 .78-.93.8.8 0 1 0-1.57 0 .85.85 0 0 0 .79.93zm0-1.5a.52.52 0 0 1 .46.57c0 .37-.23.59-.45.59a.52.52 0 0 1-.45-.57c-.02-.37.2-.56.42-.56z" transform="translate(0 -.88)"/><path class="cls-13" d="M38.66 3.8H39v1.75h-.34z"/><path class="cls-13" d="M41.05 5.54a.8.8 0 1 0-1.57 0 .8.8 0 1 0 1.57 0zM40.26 5a.52.52 0 0 1 .46.57c0 .37-.23.59-.45.59a.52.52 0 0 1-.46-.57c.01-.4.19-.59.45-.59zm2.03 1.47a.85.85 0 0 0 .78-.93.8.8 0 1 0-1.57 0 .85.85 0 0 0 .79.93zm0-1.5a.52.52 0 0 1 .46.57c0 .37-.23.59-.45.59a.52.52 0 0 1-.46-.57c-.01-.37.21-.56.43-.56z" transform="translate(0 -.88)"/><path class="cls-13" d="M43.55 3.8h.33v1.75h-.33z"/><path class="cls-13" d="M44.37 5.56a.8.8 0 1 0 1.57 0 .8.8 0 1 0-1.57 0zm.78-.56a.52.52 0 0 1 .46.57c0 .37-.23.59-.45.59a.52.52 0 0 1-.46-.57c.01-.4.23-.59.45-.59zm1.23.56a.8.8 0 1 0 1.57 0 .8.8 0 1 0-1.57 0zm.78-.56a.52.52 0 0 1 .46.57c0 .37-.23.59-.45.59a.52.52 0 0 1-.46-.57c.01-.4.23-.59.45-.59zM22.72 9.06a.85.85 0 0 0 .78-.93.8.8 0 1 0-1.57 0 .85.85 0 0 0 .79.93zm0-1.5a.52.52 0 0 1 .46.57c0 .37-.23.59-.45.59a.52.52 0 0 1-.46-.57c0-.37.22-.59.44-.59zm2.02 1.5a.85.85 0 0 0 .78-.93.8.8 0 1 0-1.57 0 .85.85 0 0 0 .79.93zm0-1.5a.52.52 0 0 1 .46.57c0 .37-.23.59-.45.59a.52.52 0 0 1-.45-.57c-.02-.37.21-.59.42-.59z" transform="translate(0 -.88)"/><path class="cls-13" d="M26 6.39h.34v1.75H26z"/><path class="cls-13" d="M27.62 9.06a.85.85 0 0 0 .78-.93.8.8 0 1 0-1.57 0 .85.85 0 0 0 .79.93zm0-1.5a.52.52 0 0 1 .46.57c0 .37-.23.59-.45.59a.52.52 0 0 1-.46-.57c-.01-.37.21-.59.43-.59z" transform="translate(0 -.88)"/><path class="cls-13" d="M28.88 6.39h.33v1.75h-.33z"/><path class="cls-13" d="M30.48 7.23a.85.85 0 0 0-.78.93.8.8 0 1 0 1.57 0 .85.85 0 0 0-.79-.93zm0 .34a.52.52 0 0 1 .46.57c0 .37-.23.59-.45.59a.52.52 0 0 1-.49-.58c0-.37.26-.59.48-.59z" transform="translate(0 -.88)"/><path class="cls-13" d="M31.76 6.39h.34v1.75h-.34zm.86 0h.33v1.75h-.33z"/><path class="cls-13" d="M34.24 9.06a.85.85 0 0 0 .76-.93.8.8 0 1 0-1.57 0 .85.85 0 0 0 .81.93zm0-1.5a.52.52 0 0 1 .46.57c0 .37-.23.59-.45.59a.52.52 0 0 1-.45-.57c-.02-.37.2-.59.42-.59z" transform="translate(0 -.88)"/><path class="cls-13" d="M35.5 6.39h.34v1.75h-.34z"/><path class="cls-13" d="M37.11 9.06a.85.85 0 0 0 .78-.93.8.8 0 1 0-1.57 0 .85.85 0 0 0 .79.93zm0-1.5a.52.52 0 0 1 .46.57c0 .37-.23.59-.45.59a.52.52 0 0 1-.46-.57c-.01-.37.22-.59.44-.59zm2.02 1.5a.85.85 0 0 0 .78-.93.8.8 0 1 0-1.57 0 .85.85 0 0 0 .79.93zm0-1.5a.52.52 0 0 1 .46.57c0 .37-.23.59-.45.59a.52.52 0 0 1-.46-.57c-.01-.37.21-.59.43-.59z" transform="translate(0 -.88)"/><path class="cls-13" d="M40.39 6.39h.34v1.75h-.34z"/><path class="cls-13" d="M42 9.06a.85.85 0 0 0 .78-.93.8.8 0 1 0-1.57 0 .85.85 0 0 0 .79.93zm0-1.5a.52.52 0 0 1 .46.57c0 .37-.23.59-.45.59a.52.52 0 0 1-.45-.57c-.01-.37.21-.59.44-.59zm2 1.5a.85.85 0 0 0 .78-.93.8.8 0 1 0-1.57 0 .85.85 0 0 0 .79.93zm0-1.5a.52.52 0 0 1 .46.57c0 .37-.23.59-.45.59a.52.52 0 0 1-.46-.57c.01-.37.23-.59.45-.59z" transform="translate(0 -.88)"/><path class="cls-13" d="M45.28 6.39h.34v1.75h-.34z"/><path class="cls-13" d="M47.67 8.13a.8.8 0 1 0-1.57 0 .8.8 0 1 0 1.57 0zm-.79-.57a.52.52 0 0 1 .46.57c0 .37-.23.59-.45.59a.52.52 0 0 1-.46-.57c.01-.37.23-.59.45-.59z" transform="translate(0 -.88)"/><path class="cls-13" d="M21.98 8.98h.33v1.75h-.33z"/><path class="cls-13" d="M24.37 10.73a.8.8 0 1 0-1.57 0 .8.8 0 1 0 1.57 0zm-.79-.57a.52.52 0 0 1 .46.57c0 .37-.23.59-.45.59a.52.52 0 0 1-.45-.57c-.01-.38.22-.6.43-.6zm2.8.57a.8.8 0 1 0-1.57 0 .8.8 0 1 0 1.57 0zm-.79-.57a.52.52 0 0 1 .46.57c0 .37-.23.59-.45.59a.52.52 0 0 1-.46-.57c0-.38.23-.6.45-.6z" transform="translate(0 -.88)"/><path class="cls-13" d="M26.87 8.98h.34v1.75h-.34z"/><path class="cls-13" d="M29.26 10.73a.8.8 0 1 0-1.57 0 .8.8 0 1 0 1.57 0zm-.79-.57a.52.52 0 0 1 .46.57c0 .37-.23.59-.45.59a.52.52 0 0 1-.46-.57c-.02-.38.23-.6.45-.6zm2.01-.34a.85.85 0 0 0-.78.93.8.8 0 1 0 1.57 0 .85.85 0 0 0-.79-.93zm0 .34a.52.52 0 0 1 .46.57c0 .37-.23.59-.45.59a.52.52 0 0 1-.46-.57c-.03-.38.23-.6.45-.6z" transform="translate(0 -.88)"/><path class="cls-13" d="M31.76 8.98h.34v1.75h-.34z"/><path class="cls-13" d="M34.15 10.73a.8.8 0 1 0-1.57 0 .8.8 0 1 0 1.57 0zm-.79-.57a.52.52 0 0 1 .46.57c0 .37-.23.59-.45.59a.52.52 0 0 1-.46-.57c0-.38.23-.6.45-.6z" transform="translate(0 -.88)"/><path class="cls-13" d="M34.63 8.98h.34v1.75h-.34z"/><path class="cls-13" d="M35.45 10.74a.8.8 0 1 0 1.57 0 .8.8 0 1 0-1.57 0zm.78-.59a.52.52 0 0 1 .46.57c0 .37-.23.59-.45.59a.52.52 0 0 1-.46-.57c.01-.37.22-.59.45-.59z" transform="translate(0 -.88)"/><path class="cls-13" d="M37.51 8.98h.33v1.75h-.33z"/><path class="cls-13" d="M39.13 11.65a.85.85 0 0 0 .78-.93.8.8 0 1 0-1.57 0 .85.85 0 0 0 .79.93zm0-1.5a.52.52 0 0 1 .46.57c0 .37-.23.59-.45.59a.52.52 0 0 1-.46-.57c-.01-.37.21-.59.43-.59z" transform="translate(0 -.88)"/><path class="cls-13" d="M40.39 8.98h.34v1.75h-.34zm.86 0h.34v1.75h-.34z"/><path class="cls-13" d="M42.85 9.82a.85.85 0 0 0-.78.93.8.8 0 1 0 1.57 0 .85.85 0 0 0-.79-.93zm0 .34a.52.52 0 0 1 .46.57c0 .37-.23.59-.45.59a.52.52 0 0 1-.45-.57c0-.38.23-.6.44-.6z" transform="translate(0 -.88)"/><path class="cls-13" d="M44.13 8.98h.34v1.75h-.34z"/><path class="cls-13" d="M45 10.74a.8.8 0 1 0 1.57 0 .8.8 0 1 0-1.57 0zm.78-.59a.52.52 0 0 1 .46.57c0 .37-.23.59-.45.59a.52.52 0 0 1-.46-.57c-.04-.37.18-.59.4-.59z" transform="translate(0 -.88)"/><path class="cls-13" d="M47.01 8.98h.34v1.75h-.34z"/><path class="cls-13" d="M22.71 12.41a.85.85 0 0 0-.78.92.8.8 0 1 0 .78-.92zm0 .33a.52.52 0 0 1 .46.57c0 .37-.23.59-.45.59a.52.52 0 0 1-.46-.57c.01-.33.23-.58.45-.58zm2.01-.33a.85.85 0 0 0-.78.92.8.8 0 1 0 1.57 0 .85.85 0 0 0-.79-.92zm0 .33a.52.52 0 0 1 .46.57c0 .37-.23.59-.45.59a.52.52 0 0 1-.45-.57c0-.33.23-.58.44-.58zm2.81.58a.8.8 0 1 0-.78.93.85.85 0 0 0 .78-.93zm-.8-.57a.52.52 0 0 1 .46.57c0 .37-.23.59-.45.59a.52.52 0 0 1-.45-.57c0-.34.23-.59.45-.59z" transform="translate(0 -.88)"/><path class="cls-13" d="M28.01 11.57h.34v1.75h-.34z"/><path class="cls-13" d="M30.41 13.32a.8.8 0 1 0-1.57 0 .8.8 0 1 0 1.57 0zm-.79-.57a.52.52 0 0 1 .46.57c0 .37-.23.59-.45.59a.52.52 0 0 1-.46-.57c0-.34.23-.59.44-.59z" transform="translate(0 -.88)"/><path class="cls-13" d="M30.89 11.57h.34v1.75h-.34z"/><path class="cls-13" d="M32.49 12.41a.85.85 0 0 0-.78.92.8.8 0 1 0 .78-.92zm0 .33a.52.52 0 0 1 .46.57c0 .37-.23.59-.45.59a.52.52 0 0 1-.45-.57c-.05-.33.22-.58.44-.58zm2.01-.33a.85.85 0 0 0-.78.92.8.8 0 1 0 .78-.92zm0 .33a.52.52 0 0 1 .46.57c0 .37-.23.59-.45.59a.52.52 0 0 1-.46-.57c.01-.33.24-.58.45-.58z" transform="translate(0 -.88)"/><path class="cls-13" d="M35.78 11.57h.34v1.75h-.34z"/><path class="cls-13" d="M38.18 13.32a.8.8 0 1 0-1.57 0 .8.8 0 1 0 1.57 0zm-.79-.57a.52.52 0 0 1 .46.57c0 .37-.23.59-.45.59a.52.52 0 0 1-.45-.57c-.01-.34.21-.59.43-.59zm2-.34a.85.85 0 0 0-.78.92.8.8 0 1 0 .78-.92zm0 .33a.52.52 0 0 1 .46.57c0 .37-.23.59-.45.59a.52.52 0 0 1-.46-.57c.06-.33.24-.58.45-.58zm2.02-.33a.85.85 0 0 0-.78.92.8.8 0 1 0 .78-.92zm0 .33a.52.52 0 0 1 .46.57c0 .37-.23.59-.45.59a.52.52 0 0 1-.46-.57c.04-.33.23-.58.45-.58zm2.01-.33a.85.85 0 0 0-.78.92.8.8 0 1 0 1.57 0 .85.85 0 0 0-.79-.92zm0 .33a.52.52 0 0 1 .46.57c0 .37-.23.59-.45.59a.52.52 0 0 1-.46-.57c.03-.33.23-.58.45-.58z" transform="translate(0 -.88)"/><path class="cls-13" d="M44.7 11.57h.33v1.75h-.33z"/><path class="cls-13" d="M46.3 12.41a.85.85 0 0 0-.78.92.8.8 0 1 0 .78-.92zm0 .33a.52.52 0 0 1 .46.57c0 .37-.23.59-.45.59a.52.52 0 0 1-.46-.57c0-.33.23-.58.45-.58z" transform="translate(0 -.88)"/><path class="cls-13" d="M47.58 11.57h.34v1.75h-.34z"/><path class="cls-13" d="M22.71 15a.93.93 0 1 0 .79.91.85.85 0 0 0-.79-.91zm0 .34a.52.52 0 0 1 .46.57c0 .37-.23.59-.45.59a.52.52 0 0 1-.46-.57c.01-.37.23-.59.45-.59zm2.01-.34a.93.93 0 1 0 .79.91.85.85 0 0 0-.79-.91zm0 .34a.52.52 0 0 1 .46.57c0 .37-.23.59-.45.59a.52.52 0 0 1-.45-.57c0-.37.23-.59.44-.59z" transform="translate(0 -.88)"/><path class="cls-13" d="M26 14.16h.34v1.75H26z"/><path class="cls-13" d="M27.6 15a.93.93 0 1 0 .79.91.85.85 0 0 0-.79-.91zm0 .34a.52.52 0 0 1 .46.57c0 .37-.23.59-.45.59a.52.52 0 0 1-.46-.57c.01-.37.23-.59.45-.59z" transform="translate(0 -.88)"/><path class="cls-13" d="M28.88 14.16h.33v1.75h-.33z"/><path class="cls-13" d="M30.48 15a.93.93 0 1 0 .79.91.85.85 0 0 0-.79-.91zm0 .34a.52.52 0 0 1 .46.57c0 .37-.23.59-.45.59a.52.52 0 0 1-.46-.57c-.03-.37.23-.59.45-.59z" transform="translate(0 -.88)"/><path class="cls-13" d="M31.76 14.16h.34v1.75h-.34zm.86 0h.33v1.75h-.33z"/><path class="cls-13" d="M34.22 15a.93.93 0 1 0 .79.91.85.85 0 0 0-.79-.91zm0 .34a.52.52 0 0 1 .46.57c0 .37-.23.59-.45.59a.52.52 0 0 1-.45-.57c0-.37.22-.59.44-.59zm2.01-.34a.93.93 0 1 0 .79.91.85.85 0 0 0-.79-.91zm0 .34a.52.52 0 0 1 .46.57c0 .37-.23.59-.45.59a.52.52 0 0 1-.46-.57c.01-.37.22-.59.45-.59zm2.02-.34a.93.93 0 1 0 .79.91.85.85 0 0 0-.79-.91zm0 .34a.52.52 0 0 1 .46.57c0 .37-.23.59-.45.59a.52.52 0 0 1-.46-.57c0-.37.2-.59.45-.59z" transform="translate(0 -.88)"/><path class="cls-13" d="M39.52 14.16h.34v1.75h-.34z"/><path class="cls-13" d="M41.12 15a.93.93 0 1 0 .79.91.85.85 0 0 0-.79-.91zm0 .34a.52.52 0 0 1 .46.57c0 .37-.23.59-.45.59a.52.52 0 0 1-.45-.57c0-.37.23-.59.44-.59zm2.02-.34a.93.93 0 1 0 .79.91.85.85 0 0 0-.79-.91zm0 .34a.52.52 0 0 1 .46.57c0 .37-.23.59-.45.59a.52.52 0 0 1-.46-.57c0-.37.23-.59.45-.59z" transform="translate(0 -.88)"/><path class="cls-13" d="M44.42 14.16h.33v1.75h-.33z"/><path class="cls-13" d="M46 15a.93.93 0 1 0 .8.91.85.85 0 0 0-.8-.91zm0 .34a.52.52 0 0 1 .46.57c0 .37-.23.59-.45.59a.52.52 0 0 1-.46-.57c.02-.37.25-.59.45-.59zm2-.34a.93.93 0 1 0 .8.91.85.85 0 0 0-.8-.91zm0 .34a.52.52 0 0 1 .46.57c0 .37-.23.59-.45.59a.52.52 0 0 1-.46-.57c.03-.37.26-.59.45-.59z" transform="translate(0 -.88)"/></g></svg>